<?xml version="1.0" encoding="UTF-8" standalone="no"?>
<!-- Generator: Adobe Illustrator 18.0.0, SVG Export Plug-In . SVG Version: 6.00 Build 0)  -->

<svg
   xmlns:dc="http://purl.org/dc/elements/1.1/"
   xmlns:cc="http://creativecommons.org/ns#"
   xmlns:rdf="http://www.w3.org/1999/02/22-rdf-syntax-ns#"
   xmlns:svg="http://www.w3.org/2000/svg"
   xmlns="http://www.w3.org/2000/svg"
   xmlns:xlink="http://www.w3.org/1999/xlink"
   xmlns:sodipodi="http://sodipodi.sourceforge.net/DTD/sodipodi-0.dtd"
   xmlns:inkscape="http://www.inkscape.org/namespaces/inkscape"
   version="1.1"
   id="Capa_1"
   x="0px"
   y="0px"
   viewBox="0 0 154 154"
   style="enable-background:new 0 0 154 154;"
   xml:space="preserve"
   inkscape:version="0.48.4 r9939"
   width="100%"
   height="100%"
   sodipodi:docname="cinderella-shoe.svg"><metadata
     id="metadata3159"><rdf:RDF><cc:Work
         rdf:about=""><dc:format>image/svg+xml</dc:format><dc:type
           rdf:resource="http://purl.org/dc/dcmitype/StillImage" /><dc:title></dc:title></cc:Work></rdf:RDF></metadata><defs
     id="defs3157"><linearGradient
       id="linearGradient3943"><stop
         style="stop-color:#a072dc;stop-opacity:1;"
         offset="0"
         id="stop3945" /><stop
         id="stop3951"
         offset="0.36000001"
         style="stop-color:#952cb2;stop-opacity:1;" /><stop
         style="stop-color:#782185;stop-opacity:1;"
         offset="1"
         id="stop3947" /></linearGradient><linearGradient
       inkscape:collect="always"
       xlink:href="#linearGradient3943"
       id="linearGradient3949"
       x1="0"
       y1="77"
       x2="154"
       y2="77"
       gradientUnits="userSpaceOnUse" /></defs><sodipodi:namedview
     pagecolor="#ffffff"
     bordercolor="#666666"
     borderopacity="1"
     objecttolerance="10"
     gridtolerance="10"
     guidetolerance="10"
     inkscape:pageopacity="0"
     inkscape:pageshadow="2"
     inkscape:window-width="1488"
     inkscape:window-height="697"
     id="namedview3155"
     showgrid="false"
     inkscape:zoom="3.3571429"
     inkscape:cx="19.361702"
     inkscape:cy="77"
     inkscape:window-x="0"
     inkscape:window-y="43"
     inkscape:window-maximized="1"
     inkscape:current-layer="Capa_1" /><g
     id="g3109"><circle
       style="fill:url(#linearGradient3949);fill-opacity:1.0"
       cx="77"
       cy="77"
       r="77"
       id="circle3111" /><g
       id="g3113"><path
         style="fill:#A9DAF9;"
         d="M68.498,98.056c6.329-0.944,11.921-9.258,18.483-23.545c7.847-17.085,27.9-39.849,27.9-39.849    c-9.416-0.094-40.36,49.2-43.245,52.582c-5.058,5.929-14.386,5.742-14.386,5.742C55.819,96.563,59.43,99.408,68.498,98.056z"
         id="path3115" /><path
         style="fill:#D3EFFD;"
         d="M126.217,49.404c-3.313-6.626-11.335-14.742-11.335-14.742s-20.054,22.764-27.9,39.849    C80.42,88.798,74.827,97.111,68.498,98.056c-9.068,1.353-12.679-1.492-11.247-5.069c0,0-38.799,5.016-34.265,13.674    c4.533,8.658,41.851,10.648,45.861,10.648c4.01,0,14.903,1.708,24.064-20.575c10.147-24.682,17.438-22.223,17.438-22.223    s3.574-0.432,5.405,13.432c1.081,8.181,0.884,20.565,1.348,25.677h3.911c0.705-8.15,3.141-35.089,5.205-42.919    C128.659,61.436,129.529,56.03,126.217,49.404z M44.401,100.505c-7.138,1.089-15.881,5.252-15.969,5.294    c-0.139,0.067-0.287,0.099-0.431,0.099c-0.373,0-0.731-0.209-0.903-0.567c-0.239-0.498-0.028-1.096,0.469-1.334    c0.368-0.177,9.095-4.334,16.532-5.468c0.549-0.082,1.056,0.292,1.14,0.838C45.322,99.912,44.947,100.422,44.401,100.505z     M124.665,59.391c-0.014,0.001-0.027,0.001-0.041,0.001c-0.534,0-0.977-0.422-0.998-0.96c-0.353-8.688-7.075-14.076-7.143-14.129    c-0.434-0.342-0.509-0.971-0.168-1.404c0.343-0.434,0.972-0.507,1.404-0.168c0.307,0.241,7.515,6.021,7.904,15.621    C125.646,58.903,125.217,59.368,124.665,59.391z"
         id="path3117" /><path
         style="fill:#A9DAF9;"
         d="M117.324,115.978h3.488c0,0,0.072-0.866,0.201-2.358h-3.911    C117.236,115.097,117.324,115.978,117.324,115.978z"
         id="path3119" /><path
         style="fill:#FFFFFF;"
         d="M117.72,42.73c-0.432-0.339-1.061-0.267-1.404,0.168c-0.342,0.434-0.267,1.063,0.168,1.404    c0.068,0.053,6.79,5.44,7.143,14.129c0.021,0.538,0.465,0.96,0.998,0.96c0.014,0,0.027,0,0.041-0.001    c0.552-0.022,0.981-0.487,0.959-1.039C125.235,48.751,118.027,42.972,117.72,42.73z"
         id="path3121" /><path
         style="fill:#FFFFFF;"
         d="M44.099,98.528c-7.436,1.134-16.164,5.291-16.532,5.468c-0.498,0.238-0.708,0.836-0.469,1.334    c0.172,0.358,0.53,0.567,0.903,0.567c0.145,0,0.292-0.031,0.431-0.099c0.087-0.042,8.831-4.205,15.969-5.294    c0.546-0.083,0.921-0.593,0.838-1.139C45.155,98.82,44.648,98.446,44.099,98.528z"
         id="path3123" /></g></g><g
     id="g3125" /><g
     id="g3127" /><g
     id="g3129" /><g
     id="g3131" /><g
     id="g3133" /><g
     id="g3135" /><g
     id="g3137" /><g
     id="g3139" /><g
     id="g3141" /><g
     id="g3143" /><g
     id="g3145" /><g
     id="g3147" /><g
     id="g3149" /><g
     id="g3151" /><g
     id="g3153" /></svg>